<svg xmlns="http://www.w3.org/2000/svg" style="display: none;">
  <!-- Theme Icons -->
  <symbol id="sun" viewBox="0 0 24 24" fill="none" stroke="currentColor" stroke-width="2">
    <circle cx="12" cy="12" r="4"/>
    <path d="M12 2v2"/>
    <path d="M12 20v2"/>
    <path d="M4.93 4.93l1.41 1.41"/>
    <path d="M17.66 17.66l1.41 1.41"/>
    <path d="M2 12h2"/>
    <path d="M20 12h2"/>
    <path d="M6.34 17.66l-1.41 1.41"/>
    <path d="M19.07 4.93l-1.41 1.41"/>
  </symbol>
  
  <symbol id="moon" viewBox="0 0 24 24" fill="none" stroke="currentColor" stroke-width="2">
    <path d="M21 12.79A9 9 0 1 1 11.21 3 7 7 0 0 0 21 12.79z"/>
  </symbol>
  
  <!-- Download Icon -->
  <symbol id="download" viewBox="0 0 24 24" fill="none" stroke="currentColor" stroke-width="2">
    <path d="M21 15v4a2 2 0 0 1-2 2H5a2 2 0 0 1-2-2v-4"/>
    <polyline points="7,10 12,15 17,10"/>
    <line x1="12" y1="15" x2="12" y2="3"/>
  </symbol>
  
  <!-- Feature Icons -->
  <symbol id="search" viewBox="0 0 24 24" fill="none" stroke="currentColor" stroke-width="2">
    <circle cx="11" cy="11" r="8"/>
    <path d="M21 21l-4.35-4.35"/>
  </symbol>
  
  <symbol id="book" viewBox="0 0 24 24" fill="none" stroke="currentColor" stroke-width="2">
    <path d="M4 19.5v-15A2.5 2.5 0 0 1 6.5 2H20v20H6.5a2.5 2.5 0 0 1-2.5-2.5z"/>
    <polyline points="10,2 10,10 13,7 16,10 16,2"/>
  </symbol>
  
  <symbol id="book-search" viewBox="0 0 24 24" fill="none" stroke="currentColor" stroke-width="2">
    <path d="M4 19.5v-15A2.5 2.5 0 0 1 6.5 2H20v20H6.5a2.5 2.5 0 0 1-2.5-2.5z"/>
    <circle cx="12.5" cy="10.5" r="2.5"/>
    <path d="M14.5 12.5L16 14"/>
  </symbol>
  
  <symbol id="layout-sidebar" viewBox="0 0 24 24" fill="none" stroke="currentColor" stroke-width="2">
    <rect x="3" y="3" width="18" height="18" rx="2"/>
    <line x1="9" y1="3" x2="9" y2="21"/>
  </symbol>
  
  <symbol id="zap" viewBox="0 0 24 24" fill="none" stroke="currentColor" stroke-width="2">
    <polygon points="13,2 3,14 12,14 11,22 21,10 12,10"/>
  </symbol>
  
  <symbol id="copy" viewBox="0 0 24 24" fill="none" stroke="currentColor" stroke-width="2">
    <rect x="9" y="9" width="13" height="13" rx="2" ry="2"/>
    <path d="M5 15H4a2 2 0 0 1-2-2V4a2 2 0 0 1 2-2h9a2 2 0 0 1 2 2v1"/>
  </symbol>
  
  <!-- GitHub icon -->
  <symbol id="github" viewBox="0 0 24 24" fill="none" stroke="currentColor" stroke-width="2" stroke-linecap="round" stroke-linejoin="round">
    <path d="M9 19c-5 1.5-5-2.5-7-3m14 6v-3.87a3.37 3.37 0 0 0-.94-2.61c3.14-.35 6.44-1.54 6.44-7A5.44 5.44 0 0 0 20 4.77 5.07 5.07 0 0 0 19.91 1S18.73.65 16 2.48a13.38 13.38 0 0 0-7 0C6.27.65 5.09 1 5.09 1A5.07 5.07 0 0 0 5 4.77a5.44 5.44 0 0 0-1.5 3.78c0 5.42 3.3 6.61 6.44 7A3.37 3.37 0 0 0 9 18.13V22"/>
  </symbol>

  <!-- Coffee icon -->
  <symbol id="coffee" viewBox="0 0 24 24" fill="none" stroke="currentColor" stroke-width="2" stroke-linecap="round" stroke-linejoin="round">
    <path d="M18 8h1a4 4 0 0 1 0 8h-1"/>
    <path d="M2 8h16v9a4 4 0 0 1-4 4H6a4 4 0 0 1-4-4V8z"/>
    <line x1="6" y1="1" x2="6" y2="4"/>
    <line x1="10" y1="1" x2="10" y2="4"/>
    <line x1="14" y1="1" x2="14" y2="4"/>
  </symbol>

  <!-- Heart icon -->
  <symbol id="heart" viewBox="0 0 24 24" fill="none" stroke="currentColor" stroke-width="2" stroke-linecap="round" stroke-linejoin="round">
    <path d="M20.84 4.61a5.5 5.5 0 0 0-7.78 0L12 5.67l-1.06-1.06a5.5 5.5 0 0 0-7.78 7.78l1.06 1.06L12 21.23l7.78-7.78 1.06-1.06a5.5 5.5 0 0 0 0-7.78z"/>
  </symbol>

  <!-- Infinity icon -->
  <symbol id="infinity" viewBox="0 0 24 24" fill="none" stroke="currentColor" stroke-width="2" stroke-linecap="round" stroke-linejoin="round">
    <path d="M17 12c0-1.76-1.24-3.2-2.75-3.2S11.5 10.24 11.5 12s1.24 3.2 2.75 3.2S17 13.76 17 12z"/>
    <path d="M7 12c0 1.76 1.24 3.2 2.75 3.2S12.5 13.76 12.5 12s-1.24-3.2-2.75-3.2S7 10.24 7 12z"/>
  </symbol>

  <!-- Library icon -->
  <symbol id="library" viewBox="0 0 24 24" fill="none" stroke="currentColor" stroke-width="2" stroke-linecap="round" stroke-linejoin="round">
    <path d="M4 19.5v-15A2.5 2.5 0 0 1 6.5 2H20v20H6.5a2.5 2.5 0 0 1-2.5-2.5z"/>
    <path d="M8 7h8"/>
    <path d="M8 11h8"/>
    <path d="M8 15h5"/>
  </symbol>

  <!-- WiFi Off icon -->
  <symbol id="wifi-off" viewBox="0 0 24 24" fill="none" stroke="currentColor" stroke-width="2" stroke-linecap="round" stroke-linejoin="round">
    <line x1="1" y1="1" x2="23" y2="23"/>
    <path d="M16.72 11.06A10.94 10.94 0 0 1 19 12.55"/>
    <path d="M5 12.55a10.94 10.94 0 0 1 5.17-2.39"/>
    <path d="M10.71 5.05A16 16 0 0 1 22.58 9"/>
    <path d="M1.42 9a15.91 15.91 0 0 1 4.7-2.88"/>
    <path d="M8.53 16.11a6 6 0 0 1 6.95 0"/>
    <path d="M12 20h.01"/>
  </symbol>

  <!-- Platform Icons -->
  <symbol id="windows" viewBox="0 0 24 24" fill="none" stroke="currentColor" stroke-width="2" stroke-linecap="round" stroke-linejoin="round">
    <rect x="3" y="3" width="7" height="7"/>
    <rect x="14" y="3" width="7" height="7"/>
    <rect x="3" y="14" width="7" height="7"/>
    <rect x="14" y="14" width="7" height="7"/>
  </symbol>

  <symbol id="apple" viewBox="0 0 24 24" fill="none" stroke="currentColor" stroke-width="2" stroke-linecap="round" stroke-linejoin="round">
    <path d="M12 20.94c1.5 0 2.75 1.06 4 1.06 3 0 5-2.5 5-5.5 0-1.5-.5-3-1.5-4C18.5 11 17 10 15.5 10c-1.5 0-2.5.5-3.5.5s-2-.5-3.5-.5C7 10 5.5 11 4.5 12.5c-1 1.5-1.5 3-1.5 4.5 0 3 2 5.5 5 5.5 1.25 0 2.5-1.06 4-1.06z"/>
    <path d="M9 8c0-2 1.5-4 3.5-4S16 6 16 8"/>
  </symbol>

  <symbol id="linux" viewBox="0 0 24 24" fill="none" stroke="currentColor" stroke-width="2" stroke-linecap="round" stroke-linejoin="round">
    <circle cx="12" cy="12" r="10"/>
    <path d="M8 14s1.5 2 4 2 4-2 4-2"/>
    <line x1="9" y1="9" x2="9.01" y2="9"/>
    <line x1="15" y1="9" x2="15.01" y2="9"/>
    <path d="M12 2C8 2 6 6 6 10c0 2 1 4 2 5"/>
    <path d="M18 10c0-4-2-8-6-8"/>
    <path d="M18 15c1-1 2-3 2-5"/>
  </symbol>

  <!-- Arrow Left Icon -->
  <symbol id="arrow-left" viewBox="0 0 24 24" fill="none" stroke="currentColor" stroke-width="2" stroke-linecap="round" stroke-linejoin="round">
    <line x1="19" y1="12" x2="5" y2="12"/>
    <polyline points="12,19 5,12 12,5"/>
  </symbol>

  <!-- Chevron Down Icon -->
  <symbol id="chevron-down" viewBox="0 0 24 24" fill="none" stroke="currentColor" stroke-width="2" stroke-linecap="round" stroke-linejoin="round">
    <polyline points="6,9 12,15 18,9"/>
  </symbol>
</svg>